<mxfile host="app.diagrams.net" modified="2024-01-06T13:05:47.600Z" agent="Mozilla/5.0 (Macintosh; Intel Mac OS X 10_15_7) AppleWebKit/605.1.15 (KHTML, like Gecko) Version/17.2.1 Safari/605.1.15" etag="4DuO6bBgaA4CxaMyqXU7" version="22.1.17" type="github">
  <diagram name="Page-1" id="soKR7CIwet9UzGEPgBhU">
    <mxGraphModel dx="1220" dy="938" grid="1" gridSize="10" guides="1" tooltips="1" connect="1" arrows="1" fold="1" page="1" pageScale="1" pageWidth="1169" pageHeight="827" math="0" shadow="0">
      <root>
        <mxCell id="0" />
        <mxCell id="1" parent="0" />
        <mxCell id="f8uNrfVC8qq1xbUnTpQ6-2" value="" style="strokeWidth=1;shadow=0;dashed=0;align=center;html=1;shape=mxgraph.mockup.containers.browserWindow;rSize=0;strokeColor=#666666;strokeColor2=#008cff;strokeColor3=#c4c4c4;mainText=,;recursiveResize=0;" parent="1" vertex="1">
          <mxGeometry width="1160" height="820" as="geometry" />
        </mxCell>
        <mxCell id="f8uNrfVC8qq1xbUnTpQ6-3" value="Time Organiser" style="strokeWidth=1;shadow=0;dashed=0;align=center;html=1;shape=mxgraph.mockup.containers.anchor;fontSize=17;fontColor=#666666;align=left;whiteSpace=wrap;" parent="f8uNrfVC8qq1xbUnTpQ6-2" vertex="1">
          <mxGeometry x="52" y="12" width="120" height="26" as="geometry" />
        </mxCell>
        <mxCell id="f8uNrfVC8qq1xbUnTpQ6-4" value="https://timeorganiser.co.uk" style="strokeWidth=1;shadow=0;dashed=0;align=center;html=1;shape=mxgraph.mockup.containers.anchor;rSize=0;fontSize=17;fontColor=#666666;align=left;" parent="f8uNrfVC8qq1xbUnTpQ6-2" vertex="1">
          <mxGeometry x="130" y="60" width="250" height="26" as="geometry" />
        </mxCell>
        <mxCell id="f8uNrfVC8qq1xbUnTpQ6-10" value="" style="html=1;shadow=0;dashed=0;shape=mxgraph.bootstrap.rrect;rSize=5;strokeColor=none;html=1;whiteSpace=wrap;fillColor=#6C767D;fontColor=#ffffff;sketch=0;" parent="f8uNrfVC8qq1xbUnTpQ6-2" vertex="1">
          <mxGeometry x="10" y="120" width="440" height="30" as="geometry" />
        </mxCell>
        <mxCell id="f8uNrfVC8qq1xbUnTpQ6-11" value="&lt;font color=&quot;#ffffff&quot;&gt;Time Organiser&lt;/font&gt;" style="strokeColor=inherit;fillColor=inherit;gradientColor=inherit;fontColor=inherit;html=1;shadow=0;dashed=0;shape=mxgraph.bootstrap.leftButton;rSize=5;perimeter=none;whiteSpace=wrap;resizeHeight=1;sketch=0;" parent="f8uNrfVC8qq1xbUnTpQ6-10" vertex="1">
          <mxGeometry width="110" height="30" relative="1" as="geometry" />
        </mxCell>
        <mxCell id="f8uNrfVC8qq1xbUnTpQ6-14" value="" style="strokeColor=inherit;fillColor=inherit;gradientColor=inherit;fontColor=inherit;html=1;shadow=0;dashed=0;shape=mxgraph.bootstrap.rightButton;rSize=5;perimeter=none;whiteSpace=wrap;resizeHeight=1;sketch=0;" parent="f8uNrfVC8qq1xbUnTpQ6-10" vertex="1">
          <mxGeometry x="1" width="30" height="30" relative="1" as="geometry">
            <mxPoint x="-30" as="offset" />
          </mxGeometry>
        </mxCell>
        <mxCell id="f8uNrfVC8qq1xbUnTpQ6-12" value="&lt;font color=&quot;#ffffff&quot;&gt;New&lt;/font&gt;" style="strokeColor=inherit;fillColor=inherit;gradientColor=inherit;fontColor=inherit;html=1;shadow=0;dashed=0;perimeter=none;whiteSpace=wrap;resizeHeight=1;sketch=0;" parent="f8uNrfVC8qq1xbUnTpQ6-10" vertex="1">
          <mxGeometry width="30" height="30" relative="1" as="geometry">
            <mxPoint x="120" as="offset" />
          </mxGeometry>
        </mxCell>
        <mxCell id="f8uNrfVC8qq1xbUnTpQ6-13" value="&lt;font color=&quot;#ffffff&quot;&gt;Edit&lt;/font&gt;" style="strokeColor=inherit;fillColor=inherit;gradientColor=inherit;fontColor=inherit;html=1;shadow=0;dashed=0;perimeter=none;whiteSpace=wrap;resizeHeight=1;sketch=0;" parent="f8uNrfVC8qq1xbUnTpQ6-10" vertex="1">
          <mxGeometry width="30" height="30" relative="1" as="geometry">
            <mxPoint x="170" as="offset" />
          </mxGeometry>
        </mxCell>
        <mxCell id="f8uNrfVC8qq1xbUnTpQ6-15" value="" style="html=1;shadow=0;dashed=0;shape=mxgraph.bootstrap.rrect;rSize=5;strokeColor=none;html=1;whiteSpace=wrap;fillColor=#6C767D;fontColor=#ffffff;sketch=0;" parent="f8uNrfVC8qq1xbUnTpQ6-2" vertex="1">
          <mxGeometry x="430" y="120" width="650" height="30" as="geometry" />
        </mxCell>
        <mxCell id="f8uNrfVC8qq1xbUnTpQ6-16" value="" style="strokeColor=inherit;fillColor=inherit;gradientColor=inherit;fontColor=inherit;html=1;shadow=0;dashed=0;shape=mxgraph.bootstrap.leftButton;rSize=5;perimeter=none;whiteSpace=wrap;resizeHeight=1;sketch=0;" parent="f8uNrfVC8qq1xbUnTpQ6-15" vertex="1">
          <mxGeometry width="30" height="30" relative="1" as="geometry" />
        </mxCell>
        <mxCell id="f8uNrfVC8qq1xbUnTpQ6-18" value="" style="strokeColor=inherit;fillColor=inherit;gradientColor=inherit;fontColor=inherit;html=1;shadow=0;dashed=0;shape=mxgraph.bootstrap.rightButton;rSize=5;perimeter=none;whiteSpace=wrap;resizeHeight=1;sketch=0;" parent="f8uNrfVC8qq1xbUnTpQ6-15" vertex="1">
          <mxGeometry x="1" width="30" height="30" relative="1" as="geometry">
            <mxPoint x="-30" as="offset" />
          </mxGeometry>
        </mxCell>
        <mxCell id="f8uNrfVC8qq1xbUnTpQ6-19" value="Log out" style="html=1;shadow=0;dashed=0;shape=mxgraph.bootstrap.rrect;rSize=5;strokeColor=none;html=1;whiteSpace=wrap;fillColor=#6C767D;fontColor=#ffffff;sketch=0;" parent="f8uNrfVC8qq1xbUnTpQ6-2" vertex="1">
          <mxGeometry x="1070" y="120" width="80" height="30" as="geometry" />
        </mxCell>
        <mxCell id="4GkKyNcKcZ7dLZaAMH27-1" value="" style="rounded=0;whiteSpace=wrap;html=1;" vertex="1" parent="f8uNrfVC8qq1xbUnTpQ6-2">
          <mxGeometry x="10" y="160" width="1140" height="650" as="geometry" />
        </mxCell>
        <mxCell id="4GkKyNcKcZ7dLZaAMH27-2" value="Monday" style="rounded=0;whiteSpace=wrap;html=1;" vertex="1" parent="f8uNrfVC8qq1xbUnTpQ6-2">
          <mxGeometry x="20" y="170" width="160" height="30" as="geometry" />
        </mxCell>
        <mxCell id="4GkKyNcKcZ7dLZaAMH27-3" value="Tuesday" style="rounded=0;whiteSpace=wrap;html=1;" vertex="1" parent="f8uNrfVC8qq1xbUnTpQ6-2">
          <mxGeometry x="180" y="170" width="160" height="30" as="geometry" />
        </mxCell>
        <mxCell id="4GkKyNcKcZ7dLZaAMH27-4" value="Wednesday" style="rounded=0;whiteSpace=wrap;html=1;" vertex="1" parent="f8uNrfVC8qq1xbUnTpQ6-2">
          <mxGeometry x="340" y="170" width="160" height="30" as="geometry" />
        </mxCell>
        <mxCell id="4GkKyNcKcZ7dLZaAMH27-5" value="Thursday" style="rounded=0;whiteSpace=wrap;html=1;" vertex="1" parent="f8uNrfVC8qq1xbUnTpQ6-2">
          <mxGeometry x="500" y="170" width="160" height="30" as="geometry" />
        </mxCell>
        <mxCell id="4GkKyNcKcZ7dLZaAMH27-6" value="Friday" style="rounded=0;whiteSpace=wrap;html=1;" vertex="1" parent="f8uNrfVC8qq1xbUnTpQ6-2">
          <mxGeometry x="660" y="170" width="160" height="30" as="geometry" />
        </mxCell>
        <mxCell id="4GkKyNcKcZ7dLZaAMH27-7" value="Saturday" style="rounded=0;whiteSpace=wrap;html=1;" vertex="1" parent="f8uNrfVC8qq1xbUnTpQ6-2">
          <mxGeometry x="820" y="170" width="160" height="30" as="geometry" />
        </mxCell>
        <mxCell id="4GkKyNcKcZ7dLZaAMH27-8" value="Sunday" style="rounded=0;whiteSpace=wrap;html=1;" vertex="1" parent="f8uNrfVC8qq1xbUnTpQ6-2">
          <mxGeometry x="980" y="170" width="160" height="30" as="geometry" />
        </mxCell>
        <mxCell id="4GkKyNcKcZ7dLZaAMH27-9" value="" style="rounded=0;whiteSpace=wrap;html=1;" vertex="1" parent="f8uNrfVC8qq1xbUnTpQ6-2">
          <mxGeometry x="20" y="200" width="160" height="300" as="geometry" />
        </mxCell>
        <mxCell id="4GkKyNcKcZ7dLZaAMH27-10" value="" style="rounded=0;whiteSpace=wrap;html=1;" vertex="1" parent="f8uNrfVC8qq1xbUnTpQ6-2">
          <mxGeometry x="20" y="500" width="160" height="300" as="geometry" />
        </mxCell>
        <mxCell id="4GkKyNcKcZ7dLZaAMH27-11" value="" style="rounded=0;whiteSpace=wrap;html=1;" vertex="1" parent="f8uNrfVC8qq1xbUnTpQ6-2">
          <mxGeometry x="180" y="200" width="160" height="300" as="geometry" />
        </mxCell>
        <mxCell id="4GkKyNcKcZ7dLZaAMH27-12" value="" style="rounded=0;whiteSpace=wrap;html=1;" vertex="1" parent="f8uNrfVC8qq1xbUnTpQ6-2">
          <mxGeometry x="180" y="500" width="160" height="300" as="geometry" />
        </mxCell>
        <mxCell id="4GkKyNcKcZ7dLZaAMH27-13" value="" style="rounded=0;whiteSpace=wrap;html=1;" vertex="1" parent="f8uNrfVC8qq1xbUnTpQ6-2">
          <mxGeometry x="340" y="200" width="160" height="300" as="geometry" />
        </mxCell>
        <mxCell id="4GkKyNcKcZ7dLZaAMH27-14" value="" style="rounded=0;whiteSpace=wrap;html=1;" vertex="1" parent="f8uNrfVC8qq1xbUnTpQ6-2">
          <mxGeometry x="340" y="500" width="160" height="300" as="geometry" />
        </mxCell>
        <mxCell id="4GkKyNcKcZ7dLZaAMH27-15" value="" style="rounded=0;whiteSpace=wrap;html=1;" vertex="1" parent="f8uNrfVC8qq1xbUnTpQ6-2">
          <mxGeometry x="500" y="200" width="160" height="300" as="geometry" />
        </mxCell>
        <mxCell id="4GkKyNcKcZ7dLZaAMH27-16" value="" style="rounded=0;whiteSpace=wrap;html=1;" vertex="1" parent="f8uNrfVC8qq1xbUnTpQ6-2">
          <mxGeometry x="500" y="500" width="160" height="300" as="geometry" />
        </mxCell>
        <mxCell id="4GkKyNcKcZ7dLZaAMH27-17" value="" style="rounded=0;whiteSpace=wrap;html=1;" vertex="1" parent="f8uNrfVC8qq1xbUnTpQ6-2">
          <mxGeometry x="660" y="200" width="160" height="300" as="geometry" />
        </mxCell>
        <mxCell id="4GkKyNcKcZ7dLZaAMH27-18" value="" style="rounded=0;whiteSpace=wrap;html=1;" vertex="1" parent="f8uNrfVC8qq1xbUnTpQ6-2">
          <mxGeometry x="660" y="500" width="160" height="300" as="geometry" />
        </mxCell>
        <mxCell id="4GkKyNcKcZ7dLZaAMH27-19" value="" style="rounded=0;whiteSpace=wrap;html=1;" vertex="1" parent="f8uNrfVC8qq1xbUnTpQ6-2">
          <mxGeometry x="820" y="200" width="160" height="300" as="geometry" />
        </mxCell>
        <mxCell id="4GkKyNcKcZ7dLZaAMH27-20" value="" style="rounded=0;whiteSpace=wrap;html=1;" vertex="1" parent="f8uNrfVC8qq1xbUnTpQ6-2">
          <mxGeometry x="820" y="500" width="160" height="300" as="geometry" />
        </mxCell>
        <mxCell id="4GkKyNcKcZ7dLZaAMH27-21" value="" style="rounded=0;whiteSpace=wrap;html=1;" vertex="1" parent="f8uNrfVC8qq1xbUnTpQ6-2">
          <mxGeometry x="980" y="200" width="160" height="300" as="geometry" />
        </mxCell>
        <mxCell id="4GkKyNcKcZ7dLZaAMH27-22" value="" style="rounded=0;whiteSpace=wrap;html=1;" vertex="1" parent="f8uNrfVC8qq1xbUnTpQ6-2">
          <mxGeometry x="980" y="500" width="160" height="300" as="geometry" />
        </mxCell>
      </root>
    </mxGraphModel>
  </diagram>
</mxfile>
